<?xml version="1.0" encoding="UTF-8"?>
<svg id="Pig-option" xmlns="http://www.w3.org/2000/svg" version="1.1" viewBox="0 0 380 460">
  <!-- Generator: Adobe Illustrator 30.2.1, SVG Export Plug-In . SVG Version: 2.1.1 Build 1)  -->
  <defs>
    <style>
      .st0 {
        fill: #30567c;
      }

      .st1 {
        fill: #91bed5;
      }

      .st2 {
        fill: #345d82;
      }

      .st3 {
        fill: #faf8f1;
      }

      .st4 {
        fill: #1d2633;
      }
    </style>
  </defs>
  <path class="st0" d="M240.4,274.3c7.4,4.2,13.8,5.5,18.1,5.9,2.6.3,8.1.8,9.1-1.4.6-1.3-.7-2.9-3.3-7.1-2.3-3.7-4.1-6.8-5.3-9-6.2,3.9-12.4,7.7-18.5,11.6Z"/>
  <path class="st0" d="M113.9,280.3c1.3,6.1,2.6,11.1,3.6,14.6,3.9,13.5,7.1,19.8,11.4,24.9,4.9,6,7.2,5.6,7.7,5.5,1-.2,2.5-1.2,4.9-9.6,2.3-8,2-10.8,3.3-15.1,1.1-3.5,3.4-8.4,8.8-13.6-13.2-2.2-26.5-4.5-39.7-6.7Z"/>
  <path class="st0" d="M150.7,184.4c6.5-13.9,15.8-26.5,27.4-36.6,10.9-9.5,26.1-19.4,40.8-20.8,1-.1,2.1-.2,3.1.2,6.5,2.4-1.9,14.6-3.4,18.1-8.5,19.6-7.8,43,2.1,61.9-23.3-7.6-46.7-15.1-70-22.7Z"/>
  <path class="st0" d="M249.7,209.5c2.5-2.3,6-5,10.5-7.4,4.2-2.2,8.6-4.5,10.9-2.8,1.5,1.2,1.4,3.7,1.2,7.2-.2,4.6-1.4,8.2-2.3,10.6-6.8-2.6-13.5-5.1-20.3-7.7Z"/>
  <path class="st2" d="M344.6,274.3c-.9,1.4-2.3,2-3.5,2.4-10.5,3.9-27-10.7-36.1-23.7-5.9-8.5-8.6-17.7-11.5-15.3,0,0-.2.2-.3.3-4.1,4.5-8.5,8.8-13.1,12.8-34.9,30.5-82.2,45.5-128.3,41.8-43.1-3.5-83.5-27.9-108.4-63-4.8-6.7-12.4-19.3-9.7-27.9.2-.5.3-1,.5-1.4,2.1-4.5,6.7-6.6,11.1-8.6,8.7-4.1,17.7-7.7,26.9-10.5,37.1-11.5,76.5-8.8,113.5,2.2,35.9,10.6,67.2,29.6,105.4,31.7-2.3-.1,6.2-26.1,7.2-28.3,4.3-8.9,10.3-16.8,17-24,3.3-3.5,23-25.2,27.1-17.4.6,1.2.6,2.7.4,4-1.2,10.9-6.1,21.8-9.5,32.2-4.6,13.7-9,27.5-11.8,41.7-1,5.1,2.2,8.6,5.1,15.4,8.7,20.1,21.3,30,17.8,35.8Z"/>
  <path class="st1" d="M293.6,236.9c.3.1.6.3.8.4-.3,0-.7.2-1,.5,0,0-.1.1-.1.1-4.1,4.5-8.5,8.8-13.1,12.8-34.9,30.5-82.2,45.5-128.3,41.8-30.1-2.4-58.9-15.1-82-34.4-1.6-1.3-3.1-2.7-4.6-4.1-8.1-7.4-15.4-15.6-21.8-24.5-4.8-6.7-12.4-19.3-9.7-27.9.2-.5.3-1,.5-1.4.5.3,1.1.5,1.7.8,15.8,7,31.6,13.7,46.9,21.5,18.2,9.3,37.6,16.2,58.1,16.5,6.2,0,12.8,1,17.3,5.3,6.4,6.1,8.8,14.9,16,20.5,6.5,5.1,14.8,7.8,23,8.2,18.1,1.1,36.2-4.2,52.6-11.3,6.2-2.7,13.8-5.8,23.1-11.5,8.2-5.1,15-15.4,20.7-13.3Z"/>
  <path class="st2" d="M158.5,243.7c0,.4,0,.7.2,1,.6.9,1.3,2.1,2.1,3.5,0,0,1.3,2.1,2.2,4,3.5,7.6,2.3,10.8,5.4,19.8,1.6,4.5,3.2,7.5,5,10.9,2,3.7,6.1,10.7,12.9,18.4,5.5,6.2,11.8,11.7,18.7,16.2,3.2,2.1,21.6,14.8,24.6,9,.7-1.4.1-3.7-.1-5.2-1-4.9-3.3-9.4-5.4-14-2.9-6.5-4-13.6-5.4-20.5-1-5-2.1-9.9-3.1-14.9-1-4.9-1.5-10-4-14.4-3.3-5.9-9-9.5-15.1-12.1-8.6-3.6-18.4-5.4-27.8-4.9-2.4.1-9.9.9-10.3,3.4Z"/>
  <path class="st0" d="M171.5,220.2c-.7.2,1.7,5.6,1.4,13.9-.3,10.6-4.6,18-3.7,18.3.6.3,3.1-3.6,4.6-7.1.8-1.9,2.7-6.5,2.3-12.4-.4-7.1-3.9-13-4.6-12.8Z"/>
  <path class="st0" d="M181.8,223c-.7.2,1.1,5.2.4,12.4-1,10.9-6.7,18-5.8,18.6.6.4,3.4-2.9,5.3-5.8,1-1.7,4.2-7,3.8-14.2-.3-6-3-11.1-3.7-10.9Z"/>
  <path class="st0" d="M191.9,228.5c-.5.1,1.5,4.4,1.1,10.7-.5,7.9-4.4,12.7-3.9,12.9.5.3,6.2-5.4,6.4-12.9.2-5.9-3.1-10.8-3.6-10.7Z"/>
  <path class="st0" d="M124,205.1c0,.4,2.2-.4,6.1.1,4.5.5,7,2.2,7.3,1.6.3-.6-1.6-3-4.2-3.9-4.5-1.6-9.3,1.5-9.2,2.2Z"/>
  <path class="st3" d="M129.5,209.8c-3.8-.3-7.1,3-8.6,5.8-1.9,3.7-1.4,8.1.8,11.2.2.3,4,5.7,9.1,4.7,4.4-.9,6.4-6,6.7-9.4.5-5.3-2.9-11.9-8-12.4Z"/>
  <path class="st4" d="M126,213.7c3.3-.3,6.7,4,6.5,7.9-.2,2.9-2.3,6.6-5.6,6.7-3.1,0-5.4-3.1-5.9-5.7-.8-3.8,1.7-8.6,5-8.9Z"/>
  <path class="st0" d="M52.9,214.9c-1.4.3-3,4.2-1,6.1,1.4,1.4,4.1,1.1,4.8,0,1.1-1.8-2.1-6.5-3.8-6.1Z"/>
  <path class="st3" d="M88.5,258c-1,.9-.2,3.3.4,4.5.4.9,1,1.6,1.8,2.3.4.4,1,1,1.6,1,.3,0,.7-.4,1-.6.4-.3.7-.7,1.1-1,1.7-1.9,2.8-5.1,1.8-6.1-.5-.6-1.2,0-3.9,0-2.5,0-3.1-.6-3.7,0Z"/>
  <path class="st3" d="M102.9,258c-.8,1.1.5,3.2,1.3,4.3.6.8,1.4,1.4,2.2,1.8.5.3,1.2.8,1.8.6.3,0,.6-.5.8-.8.3-.4.6-.8.8-1.2,1.2-2.2,1.7-5.5.5-6.3-.7-.4-1.2.3-3.8.8-2.4.5-3.2,0-3.7.7Z"/>
  <path class="st3" d="M116.6,254.2c-.5,1.2,1.2,3,2.3,3.9.8.6,1.6,1,2.6,1.3.5.1,1.3.5,1.9.2.3-.2.5-.6.6-.9.2-.4.4-.9.5-1.4.7-2.5.4-5.8-.9-6.3-.7-.3-1.1.6-3.6,1.7-2.2,1-3.1.8-3.4,1.5Z"/>
  <path class="st0" d="M133.3,244.8c-7.8,6.1-16.5,10.5-25.8,13.1-6.6,1.8-13,2.6-19,2.6s-13.2-1-18.8-2.4c-1.6-1.3-3.1-2.7-4.6-4.1,10.7,3.5,25.4,5.8,41.7,1.3,9-2.5,17.3-6.7,24.9-12.6.6-.4,1.4-.4,1.8.2.4.6.3,1.4-.2,1.8Z"/>
  <metadata>
    <sfw xmlns="http://ns.adobe.com/SaveForWeb/1.0/">
      <slices/>
      <sliceSourceBounds x="33.06" y="132.09" width="312.13" height="201.05" bottomLeftOrigin="true"/>
    </sfw>
  </metadata>
</svg>